<?xml version="1.0" standalone="no"?>
<!DOCTYPE svg PUBLIC "-//W3C//DTD SVG 20010904//EN"
 "http://www.w3.org/TR/2001/REC-SVG-20010904/DTD/svg10.dtd">
<svg version="1.0" xmlns="http://www.w3.org/2000/svg"
 width="512.000000pt" height="512.000000pt" viewBox="0 0 512.000000 512.000000"
 preserveAspectRatio="xMidYMid meet">
<metadata>
Created by potrace 1.14, written by Peter Selinger 2001-2017
</metadata>
<g transform="translate(0.000000,512.000000) scale(0.100000,-0.100000)"
fill="#000000" stroke="none">
<path d="M675 5109 c-284 -37 -477 -160 -578 -369 -52 -109 -72 -184 -87 -325
-8 -68 -10 -678 -8 -1925 l4 -1825 22 -95 c67 -294 252 -478 547 -543 l100
-22 1885 0 1885 0 98 22 c300 66 484 250 550 548 l22 100 0 1885 0 1885 -22
100 c-65 295 -249 480 -543 548 l-95 21 -1855 2 c-1040 1 -1886 -2 -1925 -7z
m2750 -1393 c60 -12 108 -40 153 -91 78 -89 75 -53 75 -920 1 -572 -2 -781
-11 -812 -25 -86 -117 -175 -206 -197 -32 -8 -341 -11 -1110 -11 l-1065 1 -68
35 c-45 23 -78 48 -100 77 -65 86 -64 65 -61 933 l3 784 23 42 c49 92 119 145
212 161 56 9 2103 7 2155 -2z"/>
<path d="M1719 2528 l-325 -473 473 -3 c260 -1 686 -1 947 0 l474 3 -218 273
-218 272 -140 -175 -141 -176 -132 193 c-220 319 -282 410 -333 486 -27 39
-52 72 -56 72 -3 0 -152 -213 -331 -472z"/>
</g>
</svg>
